# xmcd
#
# Track frame offsets:
#	150
#	12097
#	24035
#	37267
#	57870
#	74122
#	86640
#	98615
#	116530
#	132457
#	149210
#
# Disc length: 2172 seconds
#
# Revision: 2
# Processed by: cddbd v1.4PL0 Copyright (c) Steve Scherf et al.
# Submitted via: CDmax 1.9
#
DISCID=9c087a0b
DTITLE=Danni Leigh - A Shot Of Whiskey and A Prayer
DYEAR=2001
DGENRE=Country
TTITLE0=Chain Gang
TTITLE1=Longnecks, Cigarettes
TTITLE2=Trying To Get Over You
TTITLE3=Whatcha Gonna Do
TTITLE4=Shiver Of Lonesome
TTITLE5=Honey I Do
TTITLE6=Little Things
TTITLE7=Can't Build A Better Love
TTITLE8=I Don't Feel That Way Anymore
TTITLE9=Back In Your Arms Again
TTITLE10=Cruel Heart
EXTD=
EXTT0=
EXTT1=
EXTT2=
EXTT3=
EXTT4=
EXTT5=
EXTT6=
EXTT7=
EXTT8=
EXTT9=
EXTT10=
PLAYORDER=
